<svg xmlns="http://www.w3.org/2000/svg" xmlns:xlink="http://www.w3.org/1999/xlink" width="350" height="357.756" viewBox="0 0 350 357.756"><defs><style>      .cls-1, .cls-11 {        fill: none;      }      .cls-10, .cls-2 {        fill: #65d2f0;      }      .cls-3 {        fill: #e1eef5;      }      .cls-4 {        fill: #cadfeb;      }      .cls-5 {        fill: #005ab8;      }      .cls-6 {        fill: #94e254;      }      .cls-7 {        fill: url(#linear-gradient);      }      .cls-8 {        fill: url(#linear-gradient-2);      }      .cls-17, .cls-9 {        fill: #fff;      }      .cls-10, .cls-11 {        clip-rule: evenodd;      }      .cls-12 {        fill: #f9882e;      }      .cls-13 {        fill: url(#linear-gradient-3);      }      .cls-14 {        clip-path: url(#clip-path);      }      .cls-15 {        clip-path: url(#clip-path-2);      }      .cls-16 {        fill: #e57d2d;      }      .cls-16, .cls-17, .cls-18, .cls-20, .cls-21, .cls-23, .cls-24, .cls-27, .cls-41, .cls-52, .cls-67, .cls-74, .cls-75 {        fill-rule: evenodd;      }      .cls-18 {        fill: #c9ebff;      }      .cls-19 {        clip-path: url(#clip-path-4);      }      .cls-20 {        fill: #9ad5f7;      }      .cls-21 {        fill: #30a9f0;      }      .cls-22 {        clip-path: url(#clip-path-6);      }      .cls-23 {        fill: #bdd4ec;      }      .cls-24 {        fill: #e7f3ff;      }      .cls-25 {        opacity: 0.7;      }      .cls-26 {        clip-path: url(#clip-path-8);      }      .cls-27 {        fill: #b5e9f7;      }      .cls-28 {        clip-path: url(#clip-path-9);      }      .cls-29 {        clip-path: url(#clip-path-11);      }      .cls-30 {        clip-path: url(#clip-path-12);      }      .cls-31 {        clip-path: url(#clip-path-13);      }      .cls-32 {        clip-path: url(#clip-path-14);      }      .cls-33 {        clip-path: url(#clip-path-16);      }      .cls-34 {        clip-path: url(#clip-path-17);      }      .cls-35 {        clip-path: url(#clip-path-19);      }      .cls-36, .cls-39, .cls-47, .cls-55, .cls-60 {        mix-blend-mode: multiply;        isolation: isolate;      }      .cls-37 {        clip-path: url(#clip-path-21);      }      .cls-38 {        clip-path: url(#clip-path-22);      }      .cls-39, .cls-45 {        opacity: 0.5;      }      .cls-40 {        clip-path: url(#clip-path-24);      }      .cls-41 {        fill: #ffb429;      }      .cls-42 {        clip-path: url(#clip-path-25);      }      .cls-43 {        opacity: 0.869;      }      .cls-44 {        clip-path: url(#clip-path-27);      }      .cls-46 {        clip-path: url(#clip-path-28);      }      .cls-47 {        opacity: 0.258;      }      .cls-48 {        clip-path: url(#clip-path-30);      }      .cls-49 {        clip-path: url(#clip-path-31);      }      .cls-50 {        clip-path: url(#clip-path-32);      }      .cls-51 {        fill: url(#linear-gradient-6);      }      .cls-52 {        fill: #5eafde;      }      .cls-53 {        clip-path: url(#clip-path-34);      }      .cls-54 {        fill: #1c3353;      }      .cls-55 {        opacity: 0.3;      }      .cls-56 {        clip-path: url(#clip-path-36);      }      .cls-57 {        clip-path: url(#clip-path-37);      }      .cls-58 {        clip-path: url(#clip-path-38);      }      .cls-59 {        clip-path: url(#clip-path-39);      }      .cls-60 {        opacity: 0.25;      }      .cls-61 {        clip-path: url(#clip-path-41);      }      .cls-62 {        clip-path: url(#clip-path-42);      }      .cls-63 {        fill: url(#linear-gradient-7);      }      .cls-64 {        clip-path: url(#clip-path-43);      }      .cls-65 {        fill: url(#linear-gradient-8);      }      .cls-66 {        clip-path: url(#clip-path-44);      }      .cls-67 {        fill: #ffa698;      }      .cls-68 {        clip-path: url(#clip-path-46);      }      .cls-69 {        fill: url(#linear-gradient-9);      }      .cls-70 {        clip-path: url(#clip-path-48);      }      .cls-71 {        fill: url(#linear-gradient-10);      }      .cls-72 {        clip-path: url(#clip-path-49);      }      .cls-73 {        fill: #0f1c2e;      }      .cls-74 {        fill: #ffb79d;      }      .cls-75 {        fill: #ff9989;      }      .cls-76 {        clip-path: url(#clip-path-51);      }      .cls-77 {        clip-path: url(#clip-path-53);      }      .cls-78 {        clip-path: url(#clip-path-54);      }      .cls-79 {        fill: url(#linear-gradient-11);      }    </style><linearGradient id="linear-gradient" x1="0.384" y1="0.095" x2="0.403" y2="0.74" gradientUnits="objectBoundingBox"><stop offset="0" stop-color="#0760bb"></stop><stop offset="1" stop-color="#5cc8eb"></stop></linearGradient><linearGradient id="linear-gradient-2" x1="0.5" x2="0.5" y2="1" gradientUnits="objectBoundingBox"><stop offset="0" stop-color="#f98631"></stop><stop offset="1" stop-color="#f4aa03"></stop></linearGradient><linearGradient id="linear-gradient-3" x1="0.907" y1="0.066" x2="0.253" y2="0.892" gradientUnits="objectBoundingBox"><stop offset="0" stop-color="#025ab8"></stop><stop offset="0.507" stop-color="#61ceee"></stop><stop offset="1" stop-color="#025ab8"></stop></linearGradient><clipPath id="clip-path"><rect id="Rectangle_2853" data-name="Rectangle 2853" class="cls-1" width="323.851" height="357.756"></rect></clipPath><clipPath id="clip-path-2"><path id="Path_8309" data-name="Path 8309" class="cls-2" d="M293.7,102.566l84.159,48.664.216-82.894L293.922,19.68Z" transform="translate(-293.704 -19.68)"></path></clipPath><clipPath id="clip-path-4"><path id="Path_8316" data-name="Path 8316" class="cls-3" d="M137.377,67.335l-.385,171.621c-.029,10.246,7.18,22.746,16.108,27.9L350.7,380.942c8.918,5.149,16.185,1.007,16.214-9.24l.384-171.62c.029-10.248-7.191-22.752-16.107-27.9L153.59,58.1a14.716,14.716,0,0,0-7.249-2.216c-5.3,0-8.943,4.2-8.964,11.456" transform="translate(-136.992 -55.879)"></path></clipPath><clipPath id="clip-path-6"><path id="Path_8321" data-name="Path 8321" class="cls-4" d="M160.946,115.769,160.7,260.947c-.024,8.547,5.99,18.974,13.437,23.274L338.9,377.37c7.438,4.295,13.5.84,13.525-7.708l.321-143.161c.024-8.548-6-18.979-13.436-23.274L174.471,108.061a12.275,12.275,0,0,0-6.046-1.849c-4.419,0-7.461,3.5-7.478,9.557" transform="translate(-160.7 -106.212)"></path></clipPath><clipPath id="clip-path-8"><rect id="Rectangle_2798" data-name="Rectangle 2798" class="cls-1" width="42.447" height="33.876"></rect></clipPath><clipPath id="clip-path-9"><rect id="Rectangle_2799" data-name="Rectangle 2799" class="cls-1" width="74.38" height="49.512"></rect></clipPath><clipPath id="clip-path-11"><rect id="Rectangle_2801" data-name="Rectangle 2801" class="cls-1" width="74.38" height="49.513"></rect></clipPath><clipPath id="clip-path-12"><rect id="Rectangle_2802" data-name="Rectangle 2802" class="cls-1" width="33.584" height="27.756"></rect></clipPath><clipPath id="clip-path-13"><rect id="Rectangle_2803" data-name="Rectangle 2803" class="cls-1" width="39.191" height="28.722"></rect></clipPath><clipPath id="clip-path-14"><rect id="Rectangle_2804" data-name="Rectangle 2804" class="cls-1" width="67.277" height="44.785"></rect></clipPath><clipPath id="clip-path-16"><path id="Path_8335" data-name="Path 8335" class="cls-5" d="M366.771,236.71c4.928,11.264.653,11.562,11.7,9.112l8.643-4.99-13.58-8.028Z" transform="translate(-366.771 -232.804)"></path></clipPath><clipPath id="clip-path-17"><path id="Path_8336" data-name="Path 8336" class="cls-5" d="M366.748,417.975c1.449.7,4.047-.035,5.152-1.516.732,3.938,4.135,9.592,6.648,11.438V249.025c-4.172-2.966-8.162-6.01-11.8-9.064Z" transform="translate(-366.748 -239.961)"></path></clipPath><clipPath id="clip-path-19"><path id="Path_8338" data-name="Path 8338" class="cls-6" d="M153.474,346.968l78.19,45.146.164-44.413L153.64,302.559Z" transform="translate(-153.474 -302.559)"></path></clipPath><clipPath id="clip-path-21"><rect id="Rectangle_2812" data-name="Rectangle 2812" class="cls-1" width="47.211" height="63.44"></rect></clipPath><clipPath id="clip-path-22"><path id="Path_8346" data-name="Path 8346" class="cls-7" d="M436.933,260.126l-.236,31.421c-.017,6.26,4.387,13.895,9.841,17.044l26.127,14.974c5.448,3.146,9.887.615,9.906-5.644L482.8,286.5c.017-6.26-4.393-13.9-9.841-17.044l-26.127-14.974a8.991,8.991,0,0,0-4.428-1.354c-3.236,0-5.463,2.565-5.476,7" transform="translate(-436.697 -253.128)"></path></clipPath><clipPath id="clip-path-24"><rect id="Rectangle_2815" data-name="Rectangle 2815" class="cls-1" width="52.085" height="106.161"></rect></clipPath><clipPath id="clip-path-25"><path id="Path_8350" data-name="Path 8350" class="cls-8" d="M417.728,414.6c-1.924,1.186-3.111,3.62-3.121,7.048l-.265,48.748c-.02,7.037,4.932,15.623,11.064,19.164l63.283,36.3c6.126,3.537,11.118.692,11.137-6.346l.265-48.748c.02-7.039-4.94-15.627-11.064-19.164l-63.284-36.3a10.105,10.105,0,0,0-4.978-1.522,5.71,5.71,0,0,0-3.037.82" transform="translate(-414.343 -413.782)"></path></clipPath><clipPath id="clip-path-27"><rect id="Rectangle_2818" data-name="Rectangle 2818" class="cls-9" width="47.93" height="61.653"></rect></clipPath><clipPath id="clip-path-28"><rect id="Rectangle_2820" data-name="Rectangle 2820" class="cls-1" width="23.876" height="39.287"></rect></clipPath><clipPath id="clip-path-30"><rect id="Rectangle_2828" data-name="Rectangle 2828" class="cls-2" width="80.598" height="44.68"></rect></clipPath><clipPath id="clip-path-31"><path id="Path_8363" data-name="Path 8363" class="cls-10" d="M4.344,479.493l40.694-23.176c4.436-2.027,10.786-3.641,15.306-1.288,4.118,2.143,10.9,6.53,13.9,8.24,2.279,1.3,10.188,6.038,5.262,8.717-14.492,7.88-28.833,16.742-43.548,24.747-2.783,1.514-6.855,2.061-11.128,1.706a29.464,29.464,0,0,1-12.052-3.589l-7.216-4.2C2.369,488.79.677,486.593.509,484.56c-.164-1.985,1.112-3.825,3.835-5.068" transform="translate(-0.495 -453.863)"></path></clipPath><clipPath id="clip-path-32"><path id="Path_8364" data-name="Path 8364" class="cls-1" d="M79.995,186.15c-5.023,1.744-5.725,6.307-2.458,11.172C83.294,205.9,94.146,221.5,97.2,223.258c3.181,1.83,7.684-1.449,7.057-5.2-.854-5.1-4.755-10.364-8.3-16.992-2.793-5.229-5.35-15.512-12.723-15.512a9.9,9.9,0,0,0-3.245.595" transform="translate(-75.544 -185.555)"></path></clipPath><linearGradient id="linear-gradient-6" x1="-1.129" y1="6.135" x2="-1.113" y2="6.135" xlink:href="#linear-gradient"></linearGradient><clipPath id="clip-path-34"><path id="Path_8367" data-name="Path 8367" class="cls-1" d="M73.052,297.075c-1.9,10.933,4.363,26.789,5.614,38.409a41.432,41.432,0,0,0-1.759,12.392c-.021,5.284.88,18.964,1.713,28.594,1.687,2.783,7.1,3.625,9.886.9-.061-10.465,2.81-30.34,3.311-40.96a17.176,17.176,0,0,0,.815-5.394c1.006-12.425,1.92-25.211,2.625-37.186.208-3.542-.06-3.092.053-6.461-3.3.847-9.462,5.521-17.1-4.231-1.027,3.962-4.318,9.13-5.155,13.932" transform="translate(-72.695 -283.143)"></path></clipPath><clipPath id="clip-path-36"><rect id="Rectangle_2834" data-name="Rectangle 2834" class="cls-1" width="22.616" height="74.806"></rect></clipPath><clipPath id="clip-path-37"><path id="Path_8368" data-name="Path 8368" class="cls-11" d="M77.314,357.949c-.254-4.181-.416-7.822-.407-10.073a41.436,41.436,0,0,1,1.759-12.393c-1.251-11.619-7.519-27.475-5.614-38.408.836-4.8,4.127-9.971,5.155-13.933,7.642,9.752,13.805,5.078,17.1,4.231-.013.376-.021.7-.025,1L84.7,296.034l2.572-.578c-.484,13.8-2.543,26.38-3.181,39.988a211.044,211.044,0,0,0-6.724,22.262Z" transform="translate(-72.695 -283.143)"></path></clipPath><clipPath id="clip-path-38"><path id="Path_8369" data-name="Path 8369" class="cls-1" d="M47.1,301.781c-3.658,10.933-1.071,17.546-1.064,42.358a67.7,67.7,0,0,0-4.337,15.132c-.868,5.284-1.392,22.6-1.622,32.233,1.133,2.784,5.481,3.779,8.961,1.875,1.619-10.465,7.906-36.236,10.11-46.857a19.05,19.05,0,0,0,1.68-5.392c3.886-16.1,11.486-35.382,14.349-50.143-1.947.48-7.918,4.663-8.607,4.719-7.039.572-10.186-4.058-12.219-7.321-1.663,3.961-5.644,8.594-7.251,13.4" transform="translate(-40.072 -288.385)"></path></clipPath><clipPath id="clip-path-39"><path id="Path_8370" data-name="Path 8370" class="cls-12" d="M46.123,195.074c-6.9,4.808-11.986,10.507-11.062,14.733,1.341,6.137,6.353,12.038,10.195,19.887a28.57,28.57,0,0,1,1.936,7.167c.6,3.5-.682,8.66,1.321,10.5a8.253,8.253,0,0,1-.653,2.51c3.9,5.487,26.366,4.132,30.567-5.089a19.982,19.982,0,0,1,.212-3.3,14.009,14.009,0,0,0,.065-4.119c-.1-4.387-.991-8.618-1.151-13.249-.2-5.8.163-11-.988-17.276-1.327-7.239-3.3-15.442-8.591-17.916a5.727,5.727,0,0,0-2.188-.571,7.058,7.058,0,0,0-1.489-.139c-4.361,0-12.291,2.758-18.174,6.86" transform="translate(-34.953 -188.214)"></path></clipPath><clipPath id="clip-path-41"><rect id="Rectangle_2839" data-name="Rectangle 2839" class="cls-1" width="38.585" height="50.374"></rect></clipPath><clipPath id="clip-path-42"><path id="Path_8371" data-name="Path 8371" class="cls-11" d="M52.517,263.971c-2.156-.538-3.827-1.395-4.657-2.561a8.248,8.248,0,0,0,.653-2.51c-2-1.84-.718-7.006-1.321-10.5a28.553,28.553,0,0,0-1.936-7.166c-3.842-7.85-8.854-13.749-10.2-19.887-.489-2.236.705-4.883,2.959-7.593,2.325-.379,4.54-.084,5.981,1.136,3.839,3.248,4.741,10.849,5.925,16.013,1.8,7.828,7.079,5.1,10.926,3.057a13.028,13.028,0,0,1-6.756,3.655c-.894.223-1.619,1.977-1.486,3.774.4,5.374.963,12.211.963,17.682,7.329,2.655,15.895.5,19.963-1.249-6.308,3.934-13.6,4.281-20.067,3.38a3.316,3.316,0,0,0-.953,2.772" transform="translate(-34.953 -213.597)"></path></clipPath><linearGradient id="linear-gradient-7" x1="-0.384" y1="4.521" x2="-0.371" y2="4.521" xlink:href="#linear-gradient"></linearGradient><clipPath id="clip-path-43"><path id="Path_8372" data-name="Path 8372" class="cls-1" d="M36.3,298.91l-2.139,2.87c1.739,1.7,2.572,3.809,3.374,4.428,1.881,1.45,3.957,1.267,8.637,2.632.551.16,2.945,2.107,4.923,2.154.871.019,2.542-1.854,2.282-2.606a11.748,11.748,0,0,0-1.8-3.1c-1.378-1.634-2.184-3.19-4.111-4-1.8-.757-4.979-1.96-5.42-2.118-.851-.3-2.869-.545-4.034-.97Z" transform="translate(-34.161 -298.203)"></path></clipPath><linearGradient id="linear-gradient-8" x1="-1.147" y1="9.062" x2="-1.115" y2="9.062" gradientUnits="objectBoundingBox"><stop offset="0" stop-color="#ff8a78"></stop><stop offset="1" stop-color="#ffa799"></stop></linearGradient><clipPath id="clip-path-44"><path id="Path_8373" data-name="Path 8373" class="cls-12" d="M18.54,215.17c-5.817,5.688-11.7,15.67-17.424,23.029-2.054,2.639-.941,4.826.683,7.214a73.5,73.5,0,0,0,14.078,16.062,4.462,4.462,0,0,0,1.889.693c.439.363,1.054,1.019,1.524,1.4-.582-.749,2.554-4.508,4.135-4.258-.406-.5-.512-.706-.933-1.284a4.858,4.858,0,0,0-.34-1.8,63.653,63.653,0,0,0-9.558-13.94,100.1,100.1,0,0,0,12.56-12.333c.957-1.105,1.473-1.641,2.415-2.789,3.995-4.867,2.842-11.728-.7-14.065a4.883,4.883,0,0,0-2.727-.869c-1.583,0-3.43.815-5.6,2.941" transform="translate(0 -212.229)"></path></clipPath><clipPath id="clip-path-46"><path id="Path_8375" data-name="Path 8375" class="cls-1" d="M58.9,181.278c.552,3.8,5.695,9.4,11.891,6.978a8.4,8.4,0,0,1-.164-1.187c-.022-.394-.023-.793-.041-1.216-.051-1.207-.9-3.37-1.234-6.084l-11.02-1.779c.274,1.283.453,2.35.568,3.289" transform="translate(-58.334 -177.989)"></path></clipPath><linearGradient id="linear-gradient-9" x1="-1.731" y1="15.503" x2="-1.699" y2="15.503" xlink:href="#linear-gradient-8"></linearGradient><clipPath id="clip-path-48"><path id="Path_8377" data-name="Path 8377" class="cls-1" d="M67.183,158.921c.085,4.651,2.107,8.777,5.524,10.624.729.394,5.192,2.281,7.5-1.9a30.44,30.44,0,0,0-.437-4.945c-.386-1.886-1.544-1.974-1.87-3.485a16.094,16.094,0,0,1-.266-1.954,3.427,3.427,0,0,0-.36-1.227,16.528,16.528,0,0,0-1.158-1.919,14.581,14.581,0,0,1-8.933,4.8" transform="translate(-67.183 -154.119)"></path></clipPath><linearGradient id="linear-gradient-10" x1="-2.682" y1="15.133" x2="-2.642" y2="15.133" gradientUnits="objectBoundingBox"><stop offset="0" stop-color="#ffb89e"></stop><stop offset="1" stop-color="#ffa799"></stop></linearGradient><clipPath id="clip-path-49"><path id="Path_8378" data-name="Path 8378" class="cls-1" d="M45.871,144.869c-4.474,3.162-2.941,8.087-.858,11.935a29.417,29.417,0,0,0,6.16,6.922c1.707,1.164.671-.351.508-1.733a1.641,1.641,0,0,1-.99-.76c-.847-1.426-1.668-3.968.776-3.944,1.258.013,2.239,1.228,2.709,2.4a1.574,1.574,0,0,0,.776.328c.413.035,1.2-.014.8-.983-1.37-3.353.1-4.274-1.275-6.041-1.028-1.324-1.22-2-1.093-2.7a4.039,4.039,0,0,1,2.092.192,6.7,6.7,0,0,0,1.747.27,12.11,12.11,0,0,0,7.211-4.037c2.026-2.636.839-6-2.324-7.1-1.761-.611-3.291-.289-5.827-.735a9.652,9.652,0,0,0-1.675-.147,9.245,9.245,0,0,0-8.739,6.126" transform="translate(-42.977 -138.743)"></path></clipPath><clipPath id="clip-path-51"><path id="Path_8386" data-name="Path 8386" class="cls-12" d="M99.751,204.58c.151.334.518,1.561.734,2.11.1.368-.316,1.453-.263,1.833.754,5.519,2.627,21.257,8.765,24.286a5.121,5.121,0,0,0,6.948-6.126c-1.878-7.639-3.424-13.781-7.71-20.322a9.855,9.855,0,0,0-1.753-1.678l-.873-1.731c-.351.939-5.125,2.606-5.848,1.628" transform="translate(-99.751 -202.952)"></path></clipPath><clipPath id="clip-path-53"><rect id="Rectangle_2851" data-name="Rectangle 2851" class="cls-1" width="13.3" height="28.67"></rect></clipPath><clipPath id="clip-path-54"><path id="Path_8387" data-name="Path 8387" class="cls-11" d="M99.75,205.936a1.288,1.288,0,0,0,1.081.295c.172.975.314,1.524.687,1.847a14.487,14.487,0,0,0,4.954-2.038,9.837,9.837,0,0,1-4.07,3.29c.3,3.447,4.309,22.433,10.648,24.829a4.863,4.863,0,0,1-4.064.007c-6.139-3.03-8.012-18.768-8.766-24.287-.052-.38.364-1.465.264-1.833-.215-.549-.583-1.775-.734-2.11" transform="translate(-99.75 -205.936)"></path></clipPath><linearGradient id="linear-gradient-11" x1="-3.381" y1="8.232" x2="-3.347" y2="8.232" xlink:href="#linear-gradient"></linearGradient></defs><g id="masthead-it-project-management" transform="translate(-6641 1653)"><ellipse id="Rectangle_1526" data-name="Rectangle 1526" class="cls-13" cx="175" cy="174.274" rx="175" ry="174.274" transform="translate(6641 -1648)"></ellipse><g id="Group_8172" data-name="Group 8172" class="cls-14" transform="translate(6654 -1653)"><g id="Group_8036" data-name="Group 8036" transform="translate(160.203 10.735)"><g id="Group_8035" data-name="Group 8035" class="cls-15"><rect id="Rectangle_2793" data-name="Rectangle 2793" class="cls-2" width="135.911" height="91.351" transform="translate(-7.089 131.166) rotate(-86.906)"></rect></g></g><g id="Group_8038" data-name="Group 8038"><g id="Group_8037" data-name="Group 8037" class="cls-14"><path id="Path_8310" data-name="Path 8310" class="cls-16" d="M426.739,115.55l2.7-1.555,2.674,4.658c.723.848,1.574.373,1.255-.771l-2.676-4.607,2.69-1.557a1.309,1.309,0,0,0-1.247-2.114l-2.69,1.513-2.674-4.608c-.605-.862-1.618-.477-1.255.665l2.668,4.65-2.689,1.513a1.468,1.468,0,0,0,1.247,2.213" transform="translate(-193.313 -48.199)"></path><path id="Path_8311" data-name="Path 8311" class="cls-17" d="M349.458,128.849l40.675,23.388a5.926,5.926,0,0,1,2.664,4.577c.028,1.65-1.118,2.319-2.57,1.474L349.554,134.9a5.992,5.992,0,0,1-2.691-4.6c-.025-1.642,1.145-2.3,2.595-1.457m-.608-39.22,40.677,23.389a5.907,5.907,0,0,1,2.66,4.516l.068,4.233c.023,1.645-1.121,2.314-2.571,1.473L349.009,99.851a5.979,5.979,0,0,1-2.689-4.536l-.064-4.228c-.029-1.646,1.145-2.3,2.594-1.458m.343,22.062c-1.449-.842-2.62-.213-2.6,1.431a5.939,5.939,0,0,0,2.689,4.591L389.962,141.1c1.452.848,2.6.2,2.572-1.439a5.9,5.9,0,0,0-2.664-4.582Z" transform="translate(-157.388 -40.573)"></path><path id="Path_8312" data-name="Path 8312" class="cls-17" d="M302.234,45.915c-.533-.312-.862.123-.6.789L310.437,69.5a1.556,1.556,0,0,0,.614.759.452.452,0,0,0,.553.009l8.079-7.6c.338-.309,0-1.228-.57-1.562l-3.159-1.847a.461.461,0,0,0-.562-.011l-3.342,3.148a.457.457,0,0,1-.556-.013,1.526,1.526,0,0,1-.611-.755L305.75,48.366a1.564,1.564,0,0,0-.612-.753Z" transform="translate(-137.063 -20.823)"></path><path id="Path_8313" data-name="Path 8313" class="cls-17" d="M304.521,88.133c-.533-.312-.862.123-.6.789l8.808,22.794a1.561,1.561,0,0,0,.614.759.453.453,0,0,0,.553.01l8.079-7.6c.338-.309,0-1.228-.57-1.562l-3.159-1.847a.462.462,0,0,0-.562-.011l-3.341,3.148a.457.457,0,0,1-.556-.012,1.533,1.533,0,0,1-.611-.756l-5.133-13.259a1.567,1.567,0,0,0-.611-.753Z" transform="translate(-138.102 -40.013)"></path><path id="Path_8314" data-name="Path 8314" class="cls-18" d="M359.177,167.545c9.043,5.21,16.136,17.818,16.109,27.9l-8.31,10.627-7.459-1.462c-4.079-7.127-19.77-13.347-16.108-27.9L191.638,93.793l-45.832-31.17h0c.2-1.175-1.237-6.965.04-7.74,1.426-.865,2.834-1.73,4.232-2.549,3.581-2.119,8.145-.808,11.5,1.124Z" transform="translate(-66.05 -23.294)"></path><path id="Path_8315" data-name="Path 8315" class="cls-18" d="M548.973,487.227c-.015,5.091-1.816,8.674-4.718,10.361l-4.131,2.485C523,492.027,529.806,416.032,528.738,390.8l4.851-66.025,15.769-9.164Z" transform="translate(-240.122 -143.456)"></path></g></g><g id="Group_8040" data-name="Group 8040" transform="translate(74.723 30.48)"><g id="Group_8039" data-name="Group 8039" class="cls-19"><rect id="Rectangle_2795" data-name="Rectangle 2795" class="cls-3" width="232.088" height="331.411" transform="translate(-1.754 0.009) rotate(-0.299)"></rect></g></g><g id="Group_8042" data-name="Group 8042"><g id="Group_8041" data-name="Group 8041" class="cls-14"><path id="Path_8317" data-name="Path 8317" class="cls-20" d="M138.319,63.785c1.531-7.588,8.064-10.2,15.874-5.689L351.8,172.18c7.8,4.505,14.3,14.641,15.789,23.969Z" transform="translate(-62.872 -25.4)"></path><path id="Path_8318" data-name="Path 8318" class="cls-21" d="M183.016,81.975c-1.331-.769-2.413-.15-2.417,1.378a5.293,5.293,0,0,0,2.4,4.161c1.33.768,2.413.151,2.417-1.379a5.3,5.3,0,0,0-2.4-4.16" transform="translate(-82.09 -37.111)"></path><path id="Path_8319" data-name="Path 8319" class="cls-21" d="M168.421,72.45c-1.331-.769-2.413-.151-2.417,1.377a5.292,5.292,0,0,0,2.4,4.161c1.33.768,2.413.152,2.416-1.379a5.292,5.292,0,0,0-2.4-4.16" transform="translate(-75.456 -32.781)"></path><path id="Path_8320" data-name="Path 8320" class="cls-21" d="M155.054,64.461c-1.331-.769-2.413-.151-2.417,1.377a5.294,5.294,0,0,0,2.4,4.161c1.33.768,2.413.151,2.417-1.379a5.294,5.294,0,0,0-2.4-4.16" transform="translate(-69.38 -29.15)"></path></g></g><g id="Group_8044" data-name="Group 8044" transform="translate(87.655 57.934)"><g id="Group_8043" data-name="Group 8043" class="cls-22"><rect id="Rectangle_2797" data-name="Rectangle 2797" class="cls-4" width="198.074" height="279.592" transform="matrix(1, -0.022, 0.022, 1, -6.053, 0.132)"></rect></g></g><g id="Group_8070" data-name="Group 8070"><g id="Group_8069" data-name="Group 8069" class="cls-14"><path id="Path_8322" data-name="Path 8322" class="cls-23" d="M486.908,312.395l3.253,160.417,5.84-3.394.461-162.575-6.005,3.526Z" transform="translate(-221.32 -139.472)"></path><path id="Path_8323" data-name="Path 8323" class="cls-24" d="M256.252,165.13l-92.324-52.05-5.866,3.459c4.317,27.394,25.905,46.45,94.537,51.047,2.493,12.13,9.671,21.74,23.376,29.651q2.4,1.39,5.081,2.71c14.669,7.232,56.208,24.162,56.369,24.374l3.409-1.933,6.146-3.62Z" transform="translate(-71.846 -51.4)"></path><path id="Path_8324" data-name="Path 8324" class="cls-17" d="M157.705,119.376l-.46,160.266c-.679,9.056,46.591,47.621,98.225,50.878l11.505-69.975-11.044-92.215c-44.87-10.189-96.824-40.967-98.226-48.953" transform="translate(-71.471 -54.261)"></path><path id="Path_8325" data-name="Path 8325" class="cls-24" d="M331.819,370.81q1.495.114,3.005.2l11.505-70.36-11.044-92.215c-1.151-.261-2.307-.54-3.466-.827Z" transform="translate(-150.825 -94.366)"></path><path id="Path_8326" data-name="Path 8326" class="cls-17" d="M337.79,209.123,337.329,371.7c12.04,34.9,72.752,60.439,84.835,56.735l.461-162.574c-4.742,1.271-69.974-31.966-84.835-56.736" transform="translate(-153.33 -95.055)"></path><g id="Group_8047" data-name="Group 8047" class="cls-25" transform="translate(92.898 84.992)"><g id="Group_8046" data-name="Group 8046"><g id="Group_8045" data-name="Group 8045" class="cls-26"><path id="Path_8327" data-name="Path 8327" class="cls-27" d="M173.061,168.011,209.935,189.3c1.563.9,2.8.2,2.807-1.552l.016-5.436a6.155,6.155,0,0,0-2.789-4.833l-36.876-21.291c-1.522-.878-2.761-.128-2.765,1.624l-.016,5.44a6.064,6.064,0,0,0,2.749,4.761" transform="translate(-170.312 -155.817)"></path></g></g></g><g id="Group_8050" data-name="Group 8050" class="cls-25" transform="translate(92.898 107.751)"><g id="Group_8049" data-name="Group 8049"><g id="Group_8048" data-name="Group 8048" class="cls-28"><path id="Path_8328" data-name="Path 8328" class="cls-27" d="M242.741,246.788c1.07.62,1.937.124,1.94-1.108l.011-3.828a4.242,4.242,0,0,0-1.928-3.34l-70.5-40.7c-1.07-.616-1.938-.123-1.94,1.107l-.011,3.833a4.248,4.248,0,0,0,1.928,3.339Z" transform="translate(-170.312 -197.542)"></path></g></g></g><g id="Group_8053" data-name="Group 8053" class="cls-25" transform="translate(92.898 126.859)"><g id="Group_8052" data-name="Group 8052"><g id="Group_8051" data-name="Group 8051" class="cls-28"><path id="Path_8329" data-name="Path 8329" class="cls-27" d="M242.741,281.818c1.07.62,1.937.124,1.94-1.107l.011-3.829a4.24,4.24,0,0,0-1.928-3.339l-70.5-40.7c-1.07-.616-1.938-.123-1.94,1.107l-.011,3.832a4.247,4.247,0,0,0,1.928,3.339Z" transform="translate(-170.312 -232.573)"></path></g></g></g><g id="Group_8056" data-name="Group 8056" class="cls-25" transform="translate(92.898 145.966)"><g id="Group_8055" data-name="Group 8055"><g id="Group_8054" data-name="Group 8054" class="cls-29"><path id="Path_8330" data-name="Path 8330" class="cls-27" d="M242.741,316.849c1.07.62,1.937.124,1.94-1.107l.011-3.829a4.242,4.242,0,0,0-1.928-3.34l-70.5-40.7c-1.07-.615-1.938-.123-1.94,1.108l-.011,3.832a4.248,4.248,0,0,0,1.928,3.339Z" transform="translate(-170.312 -267.603)"></path></g></g></g><g id="Group_8059" data-name="Group 8059" class="cls-25" transform="translate(188.312 134.238)"><g id="Group_8058" data-name="Group 8058"><g id="Group_8057" data-name="Group 8057" class="cls-30"><path id="Path_8331" data-name="Path 8331" class="cls-27" d="M347.724,257.131,376.267,273.5c1.415.818,2.535.179,2.539-1.4l.015-4.917a5.565,5.565,0,0,0-2.523-4.371l-28.544-16.374c-1.377-.794-2.5-.115-2.5,1.469l-.015,4.921a5.487,5.487,0,0,0,2.487,4.307" transform="translate(-345.237 -246.101)"></path></g></g></g><g id="Group_8062" data-name="Group 8062" class="cls-25" transform="translate(188.313 154.823)"><g id="Group_8061" data-name="Group 8061"><g id="Group_8060" data-name="Group 8060" class="cls-31"><path id="Path_8332" data-name="Path 8332" class="cls-27" d="M382.665,312.322c.968.561,1.752.112,1.755-1l.01-3.463a3.837,3.837,0,0,0-1.743-3.021L347,284.081c-.968-.557-1.753-.111-1.755,1l-.01,3.467a3.841,3.841,0,0,0,1.743,3.02Z" transform="translate(-345.238 -283.841)"></path></g></g></g><g id="Group_8065" data-name="Group 8065" class="cls-25" transform="translate(188.313 172.107)"><g id="Group_8064" data-name="Group 8064"><g id="Group_8063" data-name="Group 8063" class="cls-32"><path id="Path_8333" data-name="Path 8333" class="cls-27" d="M410.75,360.07c.968.561,1.752.112,1.755-1l.01-3.463a3.837,3.837,0,0,0-1.743-3.021L347,315.767c-.968-.557-1.753-.111-1.755,1l-.01,3.467a3.844,3.844,0,0,0,1.744,3.02Z" transform="translate(-345.238 -315.527)"></path></g></g></g><g id="Group_8068" data-name="Group 8068" class="cls-25" transform="translate(188.313 189.39)"><g id="Group_8067" data-name="Group 8067"><g id="Group_8066" data-name="Group 8066" class="cls-32"><path id="Path_8334" data-name="Path 8334" class="cls-27" d="M410.75,391.756c.968.561,1.752.112,1.755-1l.01-3.463a3.837,3.837,0,0,0-1.743-3.021L347,347.452c-.968-.557-1.753-.111-1.755,1l-.01,3.466a3.843,3.843,0,0,0,1.744,3.02Z" transform="translate(-345.238 -347.212)"></path></g></g></g></g></g><g id="Group_8072" data-name="Group 8072" transform="translate(200.058 126.985)"><g id="Group_8071" data-name="Group 8071" class="cls-33"><rect id="Rectangle_2807" data-name="Rectangle 2807" class="cls-5" width="16.355" height="21.012" transform="matrix(0.044, -0.999, 0.999, 0.044, -0.686, 15.437)"></rect></g></g><g id="Group_8074" data-name="Group 8074" transform="translate(200.046 130.889)"><g id="Group_8073" data-name="Group 8073" class="cls-34"><rect id="Rectangle_2808" data-name="Rectangle 2808" class="cls-5" width="187.959" height="12.167" transform="translate(-0.367 187.935) rotate(-89.888)"></rect></g></g><g id="Group_8076" data-name="Group 8076"><g id="Group_8075" data-name="Group 8075" class="cls-14"><path id="Path_8337" data-name="Path 8337" class="cls-24" d="M157.784,298.772l82.978,47.907-.213,57.415-82.993-47.92Z" transform="translate(-71.616 -135.804)"></path></g></g><g id="Group_8078" data-name="Group 8078" transform="translate(83.714 165.033)"><g id="Group_8077" data-name="Group 8077" class="cls-35"><rect id="Rectangle_2810" data-name="Rectangle 2810" class="cls-6" width="94.768" height="84.369" transform="translate(-6.189 89.125) rotate(-86.028)"></rect></g></g><g id="Group_8085" data-name="Group 8085"><g id="Group_8084" data-name="Group 8084" class="cls-14"><path id="Path_8340" data-name="Path 8340" class="cls-17" d="M173.634,360.979c-5.965-3.3-11.179-11.3-11.652-17.869s3.977-9.219,9.943-5.918,11.179,11.3,11.65,17.869-3.98,9.217-9.942,5.918" transform="translate(-73.612 -152.623)"></path><path id="Path_8341" data-name="Path 8341" class="cls-17" d="M212.188,369.289l-.011,4.042L248.16,393.88l.011-4.045Z" transform="translate(-96.443 -167.857)"></path><path id="Path_8342" data-name="Path 8342" class="cls-17" d="M212.137,386.5l16.278,9.395.011-4.04-16.274-9.395Z" transform="translate(-96.425 -173.846)"></path><path id="Path_8343" data-name="Path 8343" class="cls-17" d="M243.073,373.62l-30.845-17.81-.011,4.041,30.845,17.81Z" transform="translate(-96.462 -161.73)"></path><g id="Group_8083" data-name="Group 8083" class="cls-36" transform="translate(233.199 147.376)"><g id="Group_8082" data-name="Group 8082"><g id="Group_8081" data-name="Group 8081" class="cls-37"><path id="Path_8344" data-name="Path 8344" class="cls-24" d="M434.3,270.188c0-.135,19.513,14.575,29.2,16.256,16.407,9.475,10.046,21.144,9.894,41.539l-9.9,5.644-26.127-14.973c-5.454-3.15-9.858-10.785-9.841-17.044l.189-25.155Z" transform="translate(-427.527 -270.188)"></path></g></g></g><path id="Path_8345" data-name="Path 8345" class="cls-24" d="M439.776,258.426c.007-2.183-.766-3.537.17-4.73a10.379,10.379,0,0,1,3.543-1.983c1.7-.587,3.85-.284,6.191,1.069l26.128,14.974c5.446,3.146,9.856,10.784,9.84,17.044l-.235,31.421c0,1.941-.412,4.425-1.9,5.788a8.472,8.472,0,0,1-4.3,2.056c-1.418.115-1.966-1.2-3.7-2.2L449.381,306.89c-5.454-3.149-9.858-10.784-9.841-17.043Z" transform="translate(-199.763 -114.284)"></path></g></g><g id="Group_8087" data-name="Group 8087" transform="translate(238.2 138.071)"><g id="Group_8086" data-name="Group 8086" class="cls-38"><rect id="Rectangle_2814" data-name="Rectangle 2814" class="cls-7" width="47.313" height="74.311" transform="translate(-1.194 0.019) rotate(-0.917)"></rect></g></g><g id="Group_8092" data-name="Group 8092"><g id="Group_8091" data-name="Group 8091" class="cls-14"><path id="Path_8347" data-name="Path 8347" class="cls-17" d="M464.377,307.787c-4.569-2.529-8.564-8.655-8.925-13.688s3.046-7.062,7.616-4.533,8.563,8.658,8.925,13.688-3.05,7.06-7.616,4.533m16.955-1.972-2.971-1.645a31.619,31.619,0,0,0-3.1-8.357l1.937-1.149a46.585,46.585,0,0,0-3.766-5.775l-1.936,1.153a33.259,33.259,0,0,0-6.482-6.34l-.236-3.275a28.8,28.8,0,0,0-2.479-1.549,23.165,23.165,0,0,0-2.456-1.182l.236,3.275a10.245,10.245,0,0,0-6.07-.607l-2.27-3.481a7.533,7.533,0,0,0-3.213,1.912l2.27,3.478a9.166,9.166,0,0,0-2.106,5.476l-2.97-1.644a20.281,20.281,0,0,0,.025,2.623,25.966,25.966,0,0,0,.366,2.813l2.971,1.644a31.539,31.539,0,0,0,3.1,8.354l-1.937,1.152a46.538,46.538,0,0,0,3.766,5.775l1.936-1.153a33.307,33.307,0,0,0,6.482,6.341l.236,3.272a28.1,28.1,0,0,0,2.482,1.554,22.619,22.619,0,0,0,2.452,1.178l-.235-3.273a10.245,10.245,0,0,0,6.07.607l2.27,3.481a7.552,7.552,0,0,0,3.213-1.913l-2.27-3.481a9.144,9.144,0,0,0,2.105-5.473l2.971,1.644a20.3,20.3,0,0,0-.026-2.625,25.6,25.6,0,0,0-.365-2.811" transform="translate(-202.584 -125.854)"></path><g id="Group_8090" data-name="Group 8090" class="cls-39" transform="translate(222.616 219.93)"><g id="Group_8089" data-name="Group 8089"><g id="Group_8088" data-name="Group 8088" class="cls-40"><path id="Path_8348" data-name="Path 8348" class="cls-24" d="M408.127,411.071c.01-3.428,1.2-5.863,3.121-7.049,2.026-1.249,4.87-1.114,8.016.7l40.82,23.413.128,77.671-5.852,3.555L419.5,489.371c-6.132-3.541-11.084-12.126-11.065-19.165Z" transform="translate(-408.127 -403.202)"></path></g></g></g><path id="Path_8349" data-name="Path 8349" class="cls-41" d="M505.39,515.876c-.01,3.5-1.257,5.958-3.25,7.117l-3.163,1.9c-10.851-4.631-6.824-.829-7.485-16.462l3.332-35.01c-2.8-4.895-13.58-9.168-11.064-19.165l-31.8-14.888c-1.412-.96-38.526-22.454-31.864-26.484,1.114-.674,2.217-1.353,3.317-1.993,2.459-1.455,5.595-.555,7.9.772l63.284,36.3c6.212,3.579,11.084,12.238,11.065,19.164Z" transform="translate(-190.586 -186.429)"></path></g></g><g id="Group_8094" data-name="Group 8094" transform="translate(226.007 225.701)"><g id="Group_8093" data-name="Group 8093" class="cls-42"><rect id="Rectangle_2817" data-name="Rectangle 2817" class="cls-8" width="120.169" height="92.032" transform="translate(-6.384 115.263) rotate(-86.84)"></rect></g></g><g id="Group_8105" data-name="Group 8105"><g id="Group_8104" data-name="Group 8104" class="cls-14"><g id="Group_8097" data-name="Group 8097" class="cls-43" transform="translate(229.274 242.38)"><g id="Group_8096" data-name="Group 8096"><g id="Group_8095" data-name="Group 8095" class="cls-44"><path id="Path_8351" data-name="Path 8351" class="cls-17" d="M444.366,447.647l-.031,10.788c-8.042-4.645-14.595-.917-14.621,8.346S436.2,487.3,444.24,491.943c8.069,4.658,14.614.928,14.64-8.322,0-.414-.016-.846-.041-1.282l9.372,4.595c.036.695.053,1.409.051,2.1-.042,15.208-10.816,21.327-24.052,13.684s-23.921-26.148-23.878-41.357c.044-15.224,10.8-21.361,24.034-13.718" transform="translate(-420.332 -444.36)"></path></g></g></g><g id="Group_8103" data-name="Group 8103" class="cls-45" transform="translate(253.277 245.667)"><g id="Group_8102" data-name="Group 8102"><g id="Group_8101" data-name="Group 8101" class="cls-46"><path id="Path_8353" data-name="Path 8353" class="cls-17" d="M464.368,450.386c12.643,7.3,22.971,24.5,23.845,39.287l-9.372-4.595c-.542-9.015-6.8-19.458-14.5-23.9Z" transform="translate(-464.337 -450.386)"></path></g></g></g><path id="Path_8354" data-name="Path 8354" class="cls-17" d="M515.576,515.51l-.021,7.7,25.686,14.351.021-7.71Zm15.934-4.882-.021,7.7L515.6,509.2l.021-7.7Zm-16,26.28.03-7.7,6.394,3.575-.021,7.7Z" transform="translate(-234.322 -227.951)"></path></g></g><g id="Group_8122" data-name="Group 8122"><g id="Group_8121" data-name="Group 8121" class="cls-14"><g id="Group_8120" data-name="Group 8120" class="cls-47" transform="translate(0.27 247.563)"><g id="Group_8119" data-name="Group 8119"><g id="Group_8118" data-name="Group 8118" class="cls-48"><g id="Group_8117" data-name="Group 8117" transform="translate(0 0)"><g id="Group_8116" data-name="Group 8116" class="cls-49"><rect id="Rectangle_2827" data-name="Rectangle 2827" class="cls-2" width="92.888" height="91.155" transform="translate(-23.161 20.383) rotate(-43.15)"></rect></g></g></g></g></g></g></g><g id="Group_8124" data-name="Group 8124" transform="translate(41.206 101.213)"><g id="Group_8123" data-name="Group 8123" class="cls-50"><rect id="Rectangle_2830" data-name="Rectangle 2830" class="cls-51" width="33.903" height="42.019" transform="translate(-4.662 0.292) rotate(-4.934)"></rect></g></g><g id="Group_8126" data-name="Group 8126"><g id="Group_8125" data-name="Group 8125" class="cls-14"><path id="Path_8365" data-name="Path 8365" class="cls-52" d="M38.79,474.772a18.372,18.372,0,0,1-.569,2.549,30.355,30.355,0,0,0-1.425,4.1c-.751,2.853.065,6.675-.954,10.712a4.37,4.37,0,0,0,.52,4.333c1.012,1.4,2.928,3.638,5.509,3.553a3.984,3.984,0,0,0,2.758-1.32,6.67,6.67,0,0,0,1.76-4.785,39.453,39.453,0,0,1-.272-5.506c.122-1.977.514-3.066.53-5.234.016-2.292-.073-5.446-.067-6.925Z" transform="translate(-16.139 -215.804)"></path><path id="Path_8366" data-name="Path 8366" class="cls-52" d="M82.706,451.4a13.539,13.539,0,0,0-1.435,5.732c.416,1.5,1.453,2.1,2.6,3.137l.823.182c2.021,1.111,2.663,5.006,4.518,6.779,1.309,1.251,3.964,1.933,6.6,2.445,2.822.547,5.54-.263,4.864-2.494-1.679-5.544-9.435-11.8-9.444-18Z" transform="translate(-36.941 -204.17)"></path></g></g><g id="Group_8128" data-name="Group 8128" transform="translate(39.652 154.443)"><g id="Group_8127" data-name="Group 8127" class="cls-53"><rect id="Rectangle_2832" data-name="Rectangle 2832" class="cls-54" width="99.433" height="55.921" transform="translate(-32.626 85.678) rotate(-70.062)"></rect></g></g><g id="Group_8135" data-name="Group 8135"><g id="Group_8134" data-name="Group 8134" class="cls-14"><g id="Group_8133" data-name="Group 8133" class="cls-55" transform="translate(39.652 154.443)"><g id="Group_8132" data-name="Group 8132"><g id="Group_8131" data-name="Group 8131" class="cls-56"><g id="Group_8130" data-name="Group 8130" transform="translate(0 0)"><g id="Group_8129" data-name="Group 8129" class="cls-57"><rect id="Rectangle_2833" data-name="Rectangle 2833" class="cls-54" width="78.562" height="48.224" transform="translate(-25.527 66.108) rotate(-70.062)"></rect></g></g></g></g></g></g></g><g id="Group_8137" data-name="Group 8137" transform="translate(21.858 157.302)"><g id="Group_8136" data-name="Group 8136" class="cls-58"><rect id="Rectangle_2836" data-name="Rectangle 2836" class="cls-54" width="112.46" height="69.449" transform="translate(-34.268 94.467) rotate(-70.062)"></rect></g></g><g id="Group_8139" data-name="Group 8139" transform="translate(19.065 102.663)"><g id="Group_8138" data-name="Group 8138" class="cls-59"><rect id="Rectangle_2837" data-name="Rectangle 2837" class="cls-12" width="50.49" height="70.756" transform="translate(-6.569 0.497) rotate(-4.934)"></rect></g></g><g id="Group_8146" data-name="Group 8146"><g id="Group_8145" data-name="Group 8145" class="cls-14"><g id="Group_8144" data-name="Group 8144" class="cls-60" transform="translate(19.065 116.508)"><g id="Group_8143" data-name="Group 8143"><g id="Group_8142" data-name="Group 8142" class="cls-61"><g id="Group_8141" data-name="Group 8141" transform="translate(0 0)"><g id="Group_8140" data-name="Group 8140" class="cls-62"><rect id="Rectangle_2838" data-name="Rectangle 2838" class="cls-63" width="43.172" height="53.762" transform="translate(-4.716 0.15) rotate(-4.934)"></rect></g></g></g></g></g></g></g><g id="Group_8148" data-name="Group 8148" transform="translate(18.633 162.657)"><g id="Group_8147" data-name="Group 8147" class="cls-64"><rect id="Rectangle_2841" data-name="Rectangle 2841" class="cls-65" width="17.227" height="22.039" transform="matrix(0.247, -0.969, 0.969, 0.247, -3.068, 12.027)"></rect></g></g><g id="Group_8150" data-name="Group 8150" transform="translate(0 115.762)"><g id="Group_8149" data-name="Group 8149" class="cls-66"><rect id="Rectangle_2842" data-name="Rectangle 2842" class="cls-12" width="36.797" height="53.945" transform="translate(-5.338 0.38) rotate(-4.934)"></rect></g></g><g id="Group_8152" data-name="Group 8152"><g id="Group_8151" data-name="Group 8151" class="cls-14"><path id="Path_8374" data-name="Path 8374" class="cls-67" d="M70.629,187.068c-.021-.394-.023-.792-.041-1.216-.052-1.208-.9-3.371-1.234-6.084l-11.02-1.779c1.2,5.65.568,7.03.653,11.852,1.209,4.467,12.862,3.749,11.806-1.586a8.562,8.562,0,0,1-.164-1.187" transform="translate(-26.515 -80.903)"></path></g></g><g id="Group_8154" data-name="Group 8154" transform="translate(31.819 97.086)"><g id="Group_8153" data-name="Group 8153" class="cls-68"><rect id="Rectangle_2844" data-name="Rectangle 2844" class="cls-69" width="17.052" height="16.957" transform="translate(-5.258 9.896) rotate(-62.018)"></rect></g></g><g id="Group_8156" data-name="Group 8156"><g id="Group_8155" data-name="Group 8155" class="cls-14"><path id="Path_8376" data-name="Path 8376" class="cls-67" d="M67.081,170.4c-1.49-.253-5.491-.776-6.859-1.078-2.994-.661-3.655-2.9-5.773-5.926-2.782-.578-4.022-1.463-4.81-2.736-1.869-3.02-1.566-7.3.056-10.278a9.333,9.333,0,0,1,6.73-4.776c5.919-1.2,9.945,1.9,12.29,6.445a3.42,3.42,0,0,1,.361,1.227,16.119,16.119,0,0,0,.266,1.954c.327,1.51,1.484,1.6,1.87,3.484.525,2.564.6,7.988.141,9.1-.352.857-2.995,2.249-4.273,2.582" transform="translate(-21.979 -66.066)"></path></g></g><g id="Group_8158" data-name="Group 8158" transform="translate(36.646 84.066)"><g id="Group_8157" data-name="Group 8157" class="cls-70"><rect id="Rectangle_2846" data-name="Rectangle 2846" class="cls-71" width="13.562" height="18.099" transform="translate(-0.543 0.017) rotate(-1.76)"></rect></g></g><g id="Group_8160" data-name="Group 8160" transform="translate(23.442 75.679)"><g id="Group_8159" data-name="Group 8159" class="cls-72"><rect id="Rectangle_2847" data-name="Rectangle 2847" class="cls-73" width="35.65" height="35.889" transform="translate(-14.018 9.045) rotate(-36.028)"></rect></g></g><g id="Group_8162" data-name="Group 8162"><g id="Group_8161" data-name="Group 8161" class="cls-14"><path id="Path_8379" data-name="Path 8379" class="cls-67" d="M57.19,172.745c-2.444-.025-1.623,2.517-.776,3.944.583.98,1.43.614,2.02,1.344a2.1,2.1,0,0,0,2.282.844c1.326-.477-.157-2.192-.575-2.928-.27-1.343-1.4-3.188-2.951-3.2" transform="translate(-25.258 -78.52)"></path><path id="Path_8380" data-name="Path 8380" class="cls-74" d="M97,197.152a27.392,27.392,0,0,0-4.131-4.44,10.466,10.466,0,0,1-3.433-6.991,2.044,2.044,0,0,1,1.39-1.935,9.627,9.627,0,0,1,1.357-.163,5.512,5.512,0,0,1,1.326-1.631,1.405,1.405,0,0,1,1.693-.364,9.208,9.208,0,0,1,2.614,1.157,15.7,15.7,0,0,1,2.091,2.8c.651,1.033,1.527,3,1.334,3.823-.425,1.8-.935,2.224-.577,3.31l.963,2.925Z" transform="translate(-40.647 -82.498)"></path><path id="Path_8381" data-name="Path 8381" class="cls-74" d="M92.512,183.367a4.983,4.983,0,0,1,.967-1.817,1.485,1.485,0,0,1,1.718-.625,9.7,9.7,0,0,1,2.9.834,16.572,16.572,0,0,1,2.591,2.627,9.147,9.147,0,0,1,1.678,2.934l-1.068.242-2.426-.53c-3.784.024-5.759-3.464-6.363-3.664" transform="translate(-42.051 -82.214)"></path><path id="Path_8382" data-name="Path 8382" class="cls-75" d="M103.219,191.913c-.7.04-.487.186-1.132-.091-.011.616-.44,1.252-.71,1.177a1.1,1.1,0,0,1-.709-.815,2.007,2.007,0,0,1,.836-1.987,8.51,8.51,0,0,1,2.668-.22c.714-.009,1.028-.059,1.313.263a3.235,3.235,0,0,1,.538,1.051,3.1,3.1,0,0,1,.157,2.321c-.869-.636-1.715-2.225-2.961-1.7" transform="translate(-45.743 -86.349)"></path><path id="Path_8383" data-name="Path 8383" class="cls-75" d="M92.175,183.6a5.812,5.812,0,0,1,1.151-1.9,2.149,2.149,0,0,1,.51-.49l3.689,5.049c-.319.42-1.276,2.279.063,2.765-1.187-.428-3.569-2.236-5.414-5.426" transform="translate(-41.897 -82.37)"></path><path id="Path_8384" data-name="Path 8384" class="cls-74" d="M89.846,189.553a10,10,0,0,1-.764-2.8A1.344,1.344,0,0,1,90,185a10.069,10.069,0,0,1,1.433-.172l.931.163a1.674,1.674,0,0,1-1.168,2.54,22.92,22.92,0,0,0,.953,4.431c.1.346-1.55-.77-2.3-2.405" transform="translate(-40.464 -84.011)"></path><path id="Path_8385" data-name="Path 8385" class="cls-75" d="M92.974,185.045a2.307,2.307,0,0,1-2.61,2.112,2,2,0,0,0,2.129.237,1.431,1.431,0,0,0,.481-2.349" transform="translate(-41.074 -84.111)"></path></g></g><g id="Group_8164" data-name="Group 8164" transform="translate(54.41 110.702)"><g id="Group_8163" data-name="Group 8163" class="cls-76"><rect id="Rectangle_2849" data-name="Rectangle 2849" class="cls-12" width="20.037" height="32.809" transform="matrix(0.996, -0.086, 0.086, 0.996, -2.693, 0.233)"></rect></g></g><g id="Group_8171" data-name="Group 8171"><g id="Group_8170" data-name="Group 8170" class="cls-14"><g id="Group_8169" data-name="Group 8169" class="cls-60" transform="translate(54.41 112.33)"><g id="Group_8168" data-name="Group 8168"><g id="Group_8167" data-name="Group 8167" class="cls-77"><g id="Group_8166" data-name="Group 8166" transform="translate(0 0)"><g id="Group_8165" data-name="Group 8165" class="cls-78"><rect id="Rectangle_2850" data-name="Rectangle 2850" class="cls-79" width="15.732" height="29.878" transform="matrix(0.996, -0.086, 0.086, 0.996, -2.471, 0.213)"></rect></g></g></g></g></g></g></g></g></g></svg>